# xmcd
# Copyright (C) 1995-1998 Ti Kan
#
# Track frame offsets:
#       150
#       17677
#       34247
#       52056
#       67953
#       79890
#       101970
#       131726
#
# Disc length: 1972 seconds
#
# Revision: 0
# Processed by: cddbd v1.5.2PL0 Copyright (c) Steve Scherf et al.
# Submitted via: CD-Import v1.0
#
DISCID=6e07b208
DTITLE=Kapoolas - Cut Down Trees (We Need An Ark)
DYEAR=10
DGENRE=
TTITLE0=Headlines
TTITLE1=Waiting
TTITLE2=Soma
TTITLE3=Kei Antwort
TTITLE4=Cut Down Trees (We Need An Ark)
TTITLE5=Rewind And Repeat
TTITLE6=Master/Slave
TTITLE7=Ant If The Rain Falls
EXTD=
EXTT0=
EXTT1=
EXTT2=
EXTT3=
EXTT4=
EXTT5=
EXTT6=
EXTT7=
PLAYORDER=
